<?xml version="1.0" encoding="UTF-8" standalone="no"?>
<svg
   width="146.41mm"
   height="146.41mm"
   version="1.1"
   viewBox="0 0 146.41 146.41"
   xml:space="preserve"
   id="svg9"
   sodipodi:docname="4dchan-bg.svg"
   inkscape:version="1.3.2 (091e20e, 2023-11-25)"
   xmlns:inkscape="http://www.inkscape.org/namespaces/inkscape"
   xmlns:sodipodi="http://sodipodi.sourceforge.net/DTD/sodipodi-0.dtd"
   xmlns="http://www.w3.org/2000/svg"
   xmlns:svg="http://www.w3.org/2000/svg"><defs
   id="defs9" /><sodipodi:namedview
   id="namedview9"
   pagecolor="#eef2ff"
   bordercolor="#000000"
   borderopacity="0.25"
   inkscape:showpageshadow="2"
   inkscape:pageopacity="0.0"
   inkscape:pagecheckerboard="0"
   inkscape:deskcolor="#d1d1d1"
   inkscape:document-units="mm"
   inkscape:zoom="1.2672763"
   inkscape:cx="295.51566"
   inkscape:cy="246.59184"
   inkscape:window-width="1800"
   inkscape:window-height="1012"
   inkscape:window-x="0"
   inkscape:window-y="44"
   inkscape:window-maximized="1"
   inkscape:current-layer="svg9" />
  
<g
   transform="translate(-37.766 -63.623)"
   stroke="black"
   id="g9">
    <ellipse
   cx="110.97"
   cy="136.83"
   rx="8.2539"
   ry="8.2539"
   stroke="black"
   fill="#6c3"
   stroke-width="1.314"
   id="ellipse1" />
    <g
   transform="matrix(.59337 0 0 .59337 51.871 105.97)"
   id="g2">
      <path
   transform="matrix(1.6853 0 0 1.6853 -87.418 -178.59)"
   x="127.13409"
   y="155.56696"
   width="19.703302"
   height="39.275696"
   d="m127.13 155.57h19.703v39.276h-19.703z"
   fill="#6c3"
   stroke-width=".26458"
   id="path1" />
      <path
   d="m131.86 90.541v52.503l22.727-13.159v-26.218zm-23.167 39.116 4e-5 -52.227 23.214-13.479 46.271 26.635v53.228l-46.366 26.69-23.106-13.416z"
   fill="#54b126"
   stroke-width="2"
   id="path2" />
    </g>
    <g
   transform="matrix(0 -.59337 .59337 0 80.116 195.93)"
   id="g4">
      <path
   transform="matrix(1.6853 0 0 1.6853 -87.418 -178.59)"
   d="m127.13 155.57h19.703v39.276h-19.703z"
   fill="#6c3"
   stroke-width=".26458"
   id="path3" />
      <path
   d="m131.86 90.541v52.503l22.727-13.159v-26.218zm-23.167 39.116 4e-5 -52.227 23.214-13.479 46.271 26.635v53.228l-46.366 26.69-23.106-13.416z"
   fill="#54b126"
   stroke-width="2"
   id="path4" />
    </g>
    <g
   transform="matrix(-.59337 0 0 -.59337 170.07 167.68)"
   id="g6">
      <path
   transform="matrix(1.6853 0 0 1.6853 -87.418 -178.59)"
   d="m127.13 155.57h19.703v39.276h-19.703z"
   fill="#6c3"
   stroke-width=".26458"
   id="path5" />
      <path
   d="m131.86 90.541v52.503l22.727-13.159v-26.218zm-23.167 39.116 4e-5 -52.227 23.214-13.479 46.271 26.635v53.228l-46.366 26.69-23.106-13.416z"
   fill="#54b126"
   stroke-width="2"
   id="path6" />
    </g>
    <g
   transform="matrix(0 .59337 -.59337 0 141.83 77.728)"
   id="g8">
      <path
   transform="matrix(1.6853 0 0 1.6853 -87.418 -178.59)"
   d="m127.13 155.57h19.703v39.276h-19.703z"
   fill="#6c3"
   stroke-width=".26458"
   id="path7" />
      <path
   d="m131.86 90.541v52.503l22.727-13.159v-26.218zm-23.167 39.116 4e-5 -52.227 23.214-13.479 46.271 26.635v53.228l-46.366 26.69-23.106-13.416z"
   fill="#54b126"
   stroke-width="2"
   id="path8" />
    </g>
  </g></svg>
