<?xml version="1.0" standalone="no"?>
<!DOCTYPE svg PUBLIC "-//W3C//DTD SVG 20010904//EN"
 "http://www.w3.org/TR/2001/REC-SVG-20010904/DTD/svg10.dtd">
<svg version="1.0" xmlns="http://www.w3.org/2000/svg"
 width="700.000000pt" height="700.000000pt" viewBox="0 0 700.000000 700.000000"
 preserveAspectRatio="xMidYMid meet">
<metadata>
Created by potrace 1.14, written by Peter Selinger 2001-2017
</metadata>
<g transform="translate(0.000000,700.000000) scale(0.100000,-0.100000)"
fill="#000000" stroke="none">
<path d="M1870 6585 l-715 -412 0 -823 0 -823 710 -408 c390 -225 714 -409
719 -409 5 0 182 100 393 223 l383 222 0 1196 0 1197 -367 213 c-203 117 -377
218 -388 224 -18 11 -105 -37 -735 -400z m982 -18 l263 -153 0 -1063 0 -1062
-266 -155 -266 -154 -596 342 -596 343 0 685 0 685 82 47 c45 25 313 179 596
342 283 163 516 296 517 296 1 0 121 -69 266 -153z"/>
<path d="M2260 6036 l-435 -252 -3 -445 -2 -445 427 -246 c236 -136 436 -250
446 -253 16 -7 17 42 17 944 0 523 -3 951 -7 950 -5 0 -204 -114 -443 -253z"/>
<path d="M4477 5758 c-133 -228 -748 -1300 -758 -1322 -11 -23 8 -58 212 -410
l224 -386 1196 0 1197 0 224 387 225 386 -148 256 c-81 141 -266 463 -412 716
l-264 460 -821 3 -821 2 -54 -92z m1883 -715 c179 -311 333 -580 343 -597 l19
-32 -154 -264 -154 -265 -1063 0 -1062 0 -155 266 -154 266 342 596 343 596
685 0 685 0 325 -566z"/>
<path d="M4645 4748 c-138 -238 -251 -438 -253 -445 -3 -11 173 -13 947 -13
523 0 951 3 950 8 0 4 -114 203 -253 442 l-252 435 -445 3 -444 2 -250 -432z"/>
<path d="M3376 3994 c-140 -34 -266 -135 -331 -267 -192 -388 153 -821 574
-722 184 44 332 192 376 376 87 372 -247 703 -619 613z m261 -260 c167 -103
179 -333 25 -451 -117 -89 -288 -64 -379 55 -42 55 -57 111 -50 190 6 73 40
137 98 184 56 45 104 59 186 55 59 -3 82 -10 120 -33z"/>
<path d="M234 2983 c-121 -207 -220 -384 -222 -392 -1 -9 182 -335 407 -726
l409 -710 823 0 823 0 408 709 c224 390 408 714 408 720 0 5 -100 182 -222
393 l-223 383 -1196 0 -1196 0 -219 -377z m2632 -134 l154 -266 -342 -596
-343 -597 -685 1 -685 0 -181 317 c-100 174 -254 443 -343 598 l-162 280 142
245 c77 134 147 254 155 267 l15 22 1060 -2 1060 -3 155 -266z"/>
<path d="M713 2698 c3 -7 117 -206 254 -443 l249 -430 445 -3 445 -2 249 431
c138 238 251 438 253 446 3 11 -157 13 -948 13 -758 0 -951 -3 -947 -12z"/>
<path d="M4023 3067 l-383 -222 0 -1196 0 -1196 377 -219 c207 -121 384 -220
392 -222 9 -1 336 182 726 407 l710 408 0 823 0 824 -709 408 c-390 224 -714
408 -720 408 -6 0 -183 -100 -393 -223z m995 -392 l592 -340 -1 -685 0 -685
-242 -139 c-133 -76 -402 -230 -598 -343 l-356 -204 -264 154 -264 153 -3
1061 -2 1062 267 155 c148 86 271 155 274 153 3 -1 272 -155 597 -342z"/>
<path d="M4290 1661 c0 -523 3 -951 8 -950 4 0 203 114 442 253 l435 252 3
445 2 445 -432 249 c-237 138 -438 251 -445 253 -11 3 -13 -169 -13 -947z"/>
</g>
</svg>
