<?xml version="1.0" standalone="no"?>
<!DOCTYPE svg PUBLIC "-//W3C//DTD SVG 20010904//EN"
 "http://www.w3.org/TR/2001/REC-SVG-20010904/DTD/svg10.dtd">
<svg version="1.0" xmlns="http://www.w3.org/2000/svg"
 width="700.000000pt" height="700.000000pt" viewBox="0 0 700.000000 700.000000"
 preserveAspectRatio="xMidYMid meet">
<metadata>
Created by potrace 1.14, written by Peter Selinger 2001-2017
</metadata>
<g transform="translate(0.000000,700.000000) scale(0.100000,-0.100000)"
fill="#000000" stroke="none">
<path d="M2517 6855 c-32 -19 -60 -35 -62 -35 -3 0 -29 -16 -59 -35 -30 -19
-57 -35 -60 -35 -4 0 -197 -111 -226 -130 -8 -6 -22 -13 -30 -17 -8 -3 -39
-21 -68 -40 -29 -18 -54 -33 -57 -33 -2 0 -70 -39 -152 -86 -81 -47 -166 -96
-188 -109 -22 -12 -114 -65 -205 -117 l-165 -96 0 -772 0 -772 165 -95 c91
-53 255 -147 365 -211 535 -308 790 -455 801 -459 7 -2 68 28 136 68 67 40
132 77 143 83 11 6 109 63 218 126 l197 115 0 1146 0 1147 -331 192 c-182 106
-338 194 -347 196 -9 3 -43 -11 -75 -31z"/>
<path d="M4561 5726 c-17 -29 -179 -307 -222 -384 -11 -18 -38 -66 -60 -105
-23 -40 -53 -92 -67 -117 -14 -25 -33 -57 -43 -72 -11 -14 -19 -28 -19 -31 0
-5 -271 -478 -290 -507 -6 -8 -20 -33 -31 -56 l-21 -41 177 -304 c98 -167 186
-321 197 -341 l18 -38 1149 0 1149 0 132 228 c73 125 140 241 150 258 10 16
39 67 65 113 54 92 55 79 -11 191 -15 25 -132 230 -261 455 -130 226 -244 422
-254 437 -11 15 -19 29 -19 32 0 4 -119 212 -158 276 l-22 35 -770 1 -770 1
-19 -31z"/>
<path d="M3468 3925 c-2 -2 -23 -5 -47 -9 -103 -14 -212 -86 -273 -180 -164
-255 -34 -581 259 -650 301 -70 577 206 507 507 -44 189 -198 319 -394 331
-27 2 -51 2 -52 1z"/>
<path d="M466 3209 c-20 -33 -36 -62 -36 -64 0 -3 -138 -241 -160 -275 -13
-21 -108 -186 -138 -241 l-25 -46 97 -169 c53 -93 101 -176 106 -184 5 -8 55
-95 112 -194 57 -98 114 -197 127 -220 13 -22 60 -104 104 -181 100 -176 218
-378 224 -385 3 -3 351 -5 774 -6 l770 0 53 90 c29 50 139 240 243 421 104
182 252 437 327 568 75 131 139 244 142 252 3 7 -84 167 -193 354 l-198 341
-1146 0 -1147 0 -36 -61z"/>
<path d="M4285 3118 c-66 -39 -141 -83 -166 -97 -25 -14 -123 -71 -217 -126
l-172 -99 0 -1147 0 -1147 238 -138 c130 -75 284 -164 341 -197 l104 -61 41
23 c56 32 368 211 876 504 l425 244 1 772 1 771 -56 34 c-31 19 -164 96 -296
171 -132 75 -244 141 -250 145 -5 4 -30 18 -55 32 -25 14 -184 105 -354 203
-171 98 -317 179 -325 181 -9 2 -70 -29 -136 -68z"/>
</g>
</svg>
