<?xml version="1.0" standalone="no"?>
<!DOCTYPE svg PUBLIC "-//W3C//DTD SVG 20010904//EN"
 "http://www.w3.org/TR/2001/REC-SVG-20010904/DTD/svg10.dtd">
<svg version="1.0" xmlns="http://www.w3.org/2000/svg"
 width="420.000000pt" height="420.000000pt" viewBox="0 0 420.000000 420.000000"
 preserveAspectRatio="xMidYMid meet">
<metadata>
Created by potrace 1.11, written by Peter Selinger 2001-2013
</metadata>
<g transform="translate(0.000000,420.000000) scale(0.100000,-0.100000)"
fill="#000000" stroke="none">
<path d="M1387 3958 c-55 -28 -77 -82 -57 -142 12 -37 471 -500 510 -514 16
-6 41 -5 70 2 61 15 94 62 87 125 -5 42 -15 54 -250 288 -216 217 -249 246
-284 252 -30 6 -49 3 -76 -11z"/>
<path d="M2560 3533 c-46 -6 -151 -36 -156 -45 -3 -4 -13 -8 -23 -8 -31 0
-168 -99 -231 -167 -108 -119 -165 -264 -169 -433 l-2 -55 -19 52 c-78 219
-294 399 -515 430 -52 8 -180 8 -225 0 -179 -29 -349 -143 -451 -300 -37 -57
-74 -141 -83 -189 -2 -13 -8 -41 -13 -63 -12 -53 -9 -176 7 -250 7 -33 33
-102 57 -153 110 -227 355 -377 603 -369 63 2 62 1 -31 -33 -116 -42 -241
-143 -313 -251 -35 -54 -90 -169 -81 -169 3 0 1 -8 -4 -18 -28 -52 -31 -245
-7 -340 34 -129 87 -222 178 -314 154 -153 365 -219 589 -185 67 10 164 49
234 92 136 85 217 186 281 350 10 27 10 26 18 65 13 63 14 74 16 125 l1 50 23
-56 c84 -202 276 -361 488 -404 63 -13 231 -8 298 10 235 60 429 259 484 493
21 90 19 238 -5 324 -33 120 -91 219 -175 300 -139 133 -278 191 -466 193 -36
0 -64 3 -61 8 2 4 13 7 24 7 27 0 138 51 192 89 185 127 290 326 290 551 0
307 -202 568 -500 646 -55 14 -198 24 -253 17z m205 -253 c132 -43 231 -132
277 -252 24 -63 30 -96 30 -164 0 -47 -28 -173 -41 -184 -3 -3 -13 -18 -21
-34 -24 -47 -109 -125 -169 -155 -172 -87 -374 -52 -502 87 -75 81 -113 171
-118 279 -3 58 24 180 45 204 8 8 14 21 14 27 0 7 28 41 63 76 61 62 117 95
202 121 50 15 168 12 220 -5z m-1330 -215 c137 -33 280 -174 311 -307 24 -100
7 -229 -42 -318 -47 -87 -166 -181 -259 -204 -141 -36 -302 5 -403 103 -216
209 -165 558 100 690 92 46 198 59 293 36z m638 -537 c24 -41 113 -149 129
-156 4 -2 22 -16 40 -32 42 -37 156 -94 231 -115 32 -9 96 -18 142 -18 45 -1
81 -5 78 -9 -2 -5 -11 -8 -19 -8 -22 0 -138 -55 -186 -88 -99 -69 -177 -159
-226 -262 -37 -77 -69 -207 -66 -269 2 -44 1 -43 -43 50 -39 80 -58 107 -132
179 -64 64 -105 95 -162 123 -97 47 -199 73 -288 73 -74 -1 -93 7 -41 18 100
20 235 111 323 219 97 119 142 247 147 412 l0 40 24 -57 c13 -31 35 -76 49
-100z m924 -572 c264 -95 370 -389 228 -632 -48 -82 -165 -166 -265 -191 -37
-9 -145 -10 -183 -2 -121 27 -240 120 -295 232 -120 245 18 540 283 603 63 15
177 10 232 -10z m-1311 -219 c74 -27 108 -49 167 -108 166 -167 167 -426 4
-594 -84 -86 -172 -126 -286 -130 -173 -6 -327 86 -401 240 -140 292 77 622
400 610 41 -2 94 -10 116 -18z"/>
<path d="M2073 2218 c-93 -20 -127 -146 -56 -210 29 -26 97 -38 127 -23 48 25
68 52 73 98 10 89 -59 153 -144 135z"/>
<path d="M3804 2870 c-24 -9 -471 -453 -494 -490 -28 -45 -11 -126 32 -154 32
-21 82 -28 112 -16 28 10 485 461 504 497 51 94 -53 204 -154 163z"/>
<path d="M736 1985 c-31 -17 -477 -460 -494 -492 -20 -36 -15 -95 11 -124 50
-58 118 -65 174 -16 99 86 458 456 469 483 41 98 -67 197 -160 149z"/>
<path d="M2289 899 c-75 -20 -115 -98 -82 -162 15 -29 447 -466 488 -493 46
-30 127 -15 154 29 26 40 31 88 14 121 -9 17 -123 137 -253 267 -246 245 -259
255 -321 238z"/>
</g>
</svg>
